<svg width="20" height="20" viewBox="0 0 16 16" fill="none" xmlns="http://www.w3.org/2000/svg" shape-rendering="crispEdges">
<path d="M8.6672 3.50589C8.66799 3.23925 8.61545 2.97514 8.51267 2.72909C8.40989 2.48305 8.25895 2.26004 8.06872 2.07319C7.87849 1.88634 7.65282 1.73941 7.40498 1.64105C7.15713 1.54269 6.89212 1.49488 6.62553 1.50043C6.35895 1.50599 6.09616 1.5648 5.85263 1.6734C5.6091 1.78201 5.38975 1.93821 5.20747 2.13283C5.0252 2.32745 4.88368 2.55655 4.79124 2.80666C4.6988 3.05677 4.65731 3.32284 4.6692 3.58923C4.27734 3.68998 3.91354 3.87859 3.60536 4.14077C3.29718 4.40294 3.0527 4.73181 2.89043 5.10246C2.72817 5.47311 2.65238 5.87582 2.6688 6.2801C2.68522 6.68438 2.79342 7.07962 2.9852 7.43589C2.64799 7.70985 2.38282 8.06205 2.21276 8.46185C2.04271 8.86165 1.97291 9.29695 2.00945 9.72988C2.04598 10.1628 2.18775 10.5803 2.42241 10.9459C2.65707 11.3116 2.97751 11.6143 3.35587 11.8279C3.30915 12.1894 3.33703 12.5566 3.4378 12.9069C3.53856 13.2572 3.71007 13.5831 3.94173 13.8645C4.17339 14.1459 4.46028 14.3769 4.78468 14.5431C5.10909 14.7093 5.46412 14.8072 5.82786 14.8308C6.19159 14.8544 6.5563 14.8032 6.89946 14.6803C7.24263 14.5574 7.55696 14.3655 7.82304 14.1164C8.08913 13.8673 8.30132 13.5663 8.44651 13.2319C8.59171 12.8976 8.66682 12.5371 8.6672 12.1726V3.50589Z" stroke="#100D0D" stroke-linecap="round" stroke-linejoin="round"/>
<path d="M6.66699 8.83952C7.2267 8.64262 7.71545 8.28418 8.07144 7.80952C8.42744 7.33486 8.63469 6.7653 8.66699 6.17285" stroke="#100D0D" stroke-linecap="round" stroke-linejoin="round"/>
<path d="M4.66895 3.58936C4.68213 3.91184 4.77316 4.22635 4.93428 4.50602" stroke="#100D0D" stroke-linecap="round" stroke-linejoin="round"/>
<path d="M2.98438 7.43685C3.10633 7.33752 3.23684 7.24918 3.37437 7.17285" stroke="#100D0D" stroke-linecap="round" stroke-linejoin="round"/>
<path d="M4.6668 12.1726C4.20736 12.1728 3.75565 12.0543 3.35547 11.8286" stroke="#100D0D" stroke-linecap="round" stroke-linejoin="round"/>
<path d="M8.66699 8.83936H11.3337" stroke="#100D0D" stroke-linecap="round" stroke-linejoin="round"/>
<path d="M8.66699 12.1729H12.667C13.0206 12.1729 13.3598 12.3133 13.6098 12.5634C13.8598 12.8134 14.0003 13.1526 14.0003 13.5062V14.1729" stroke="#100D0D" stroke-linecap="round" stroke-linejoin="round"/>
<path d="M8.66699 5.50586H14.0003" stroke="#100D0D" stroke-linecap="round" stroke-linejoin="round"/>
<path d="M11.334 5.50618V3.50618C11.334 3.15256 11.4745 2.81342 11.7245 2.56338C11.9746 2.31333 12.3137 2.17285 12.6673 2.17285" stroke="#100D0D" stroke-linecap="round" stroke-linejoin="round"/>
<path d="M11.3333 9.17253C11.5174 9.17253 11.6667 9.02329 11.6667 8.83919C11.6667 8.6551 11.5174 8.50586 11.3333 8.50586C11.1492 8.50586 11 8.6551 11 8.83919C11 9.02329 11.1492 9.17253 11.3333 9.17253Z" stroke="#100D0D" stroke-linecap="round" stroke-linejoin="round"/>
<path d="M12.6673 2.50602C12.8514 2.50602 13.0007 2.35678 13.0007 2.17269C13.0007 1.98859 12.8514 1.83936 12.6673 1.83936C12.4832 1.83936 12.334 1.98859 12.334 2.17269C12.334 2.35678 12.4832 2.50602 12.6673 2.50602Z" stroke="#100D0D" stroke-linecap="round" stroke-linejoin="round"/>
<path d="M14.0003 14.506C14.1844 14.506 14.3337 14.3568 14.3337 14.1727C14.3337 13.9886 14.1844 13.8394 14.0003 13.8394C13.8162 13.8394 13.667 13.9886 13.667 14.1727C13.667 14.3568 13.8162 14.506 14.0003 14.506Z" stroke="#100D0D" stroke-linecap="round" stroke-linejoin="round"/>
<path d="M14.0003 5.83952C14.1844 5.83952 14.3337 5.69028 14.3337 5.50618C14.3337 5.32209 14.1844 5.17285 14.0003 5.17285C13.8162 5.17285 13.667 5.32209 13.667 5.50618C13.667 5.69028 13.8162 5.83952 14.0003 5.83952Z" stroke="#100D0D" stroke-linecap="round" stroke-linejoin="round"/>
</svg>
