<svg width="20" height="20" viewBox="0 0 16 16" fill="none" xmlns="http://www.w3.org/2000/svg" shape-rendering="crispEdges">
<path d="M13.5 3.99984C13.5 3.5396 13.1269 3.1665 12.6667 3.1665H3.33333C2.8731 3.1665 2.5 3.5396 2.5 3.99984V11.9998C2.5 12.4601 2.8731 12.8332 3.33333 12.8332H12.6667C13.1269 12.8332 13.5 12.4601 13.5 11.9998V3.99984ZM11.3333 10.1665C11.6095 10.1665 11.8333 10.3904 11.8333 10.6665C11.8333 10.9426 11.6095 11.1665 11.3333 11.1665H4.66667C4.39052 11.1665 4.16667 10.9426 4.16667 10.6665C4.16667 10.3904 4.39052 10.1665 4.66667 10.1665H11.3333ZM6.83333 5.99984C6.83333 5.90779 6.75871 5.83317 6.66667 5.83317H5.33333C5.24129 5.83317 5.16667 5.90779 5.16667 5.99984V7.33317C5.16667 7.42522 5.24129 7.49984 5.33333 7.49984H6.66667C6.75871 7.49984 6.83333 7.42522 6.83333 7.33317V5.99984ZM11.3333 7.49984C11.6095 7.49984 11.8333 7.7237 11.8333 7.99984C11.8333 8.27598 11.6095 8.49984 11.3333 8.49984H9.33333C9.05719 8.49984 8.83333 8.27598 8.83333 7.99984C8.83333 7.7237 9.05719 7.49984 9.33333 7.49984H11.3333ZM11.3333 4.83317C11.6095 4.83317 11.8333 5.05703 11.8333 5.33317C11.8333 5.60931 11.6095 5.83317 11.3333 5.83317H9.33333C9.05719 5.83317 8.83333 5.60931 8.83333 5.33317C8.83333 5.05703 9.05719 4.83317 9.33333 4.83317H11.3333ZM7.83333 7.33317C7.83333 7.9775 7.311 8.49984 6.66667 8.49984H5.33333C4.689 8.49984 4.16667 7.9775 4.16667 7.33317V5.99984C4.16667 5.35551 4.689 4.83317 5.33333 4.83317H6.66667C7.311 4.83317 7.83333 5.35551 7.83333 5.99984V7.33317ZM14.5 11.9998C14.5 13.0124 13.6792 13.8332 12.6667 13.8332H3.33333C2.32081 13.8332 1.5 13.0124 1.5 11.9998V3.99984C1.5 2.98732 2.32081 2.1665 3.33333 2.1665H12.6667C13.6792 2.1665 14.5 2.98732 14.5 3.99984V11.9998Z" fill="#100D0D"/>
</svg>
