<svg width="20" height="20" viewBox="0 0 16 16" fill="none" xmlns="http://www.w3.org/2000/svg" shape-rendering="crispEdges">
<path d="M14.1663 9.99984C14.1663 9.63446 13.9356 9.49984 13.833 9.49984H8.83301C8.7304 9.49984 8.49967 9.63447 8.49967 9.99984V12.9998C8.49967 13.3652 8.7304 13.4998 8.83301 13.4998H13.833C13.9356 13.4998 14.1663 13.3652 14.1663 12.9998V9.99984ZM9.58301 11.9165V11.0832C9.58301 10.807 9.80687 10.5832 10.083 10.5832C10.3592 10.5832 10.583 10.807 10.583 11.0832V11.9165C10.583 12.1926 10.3592 12.4165 10.083 12.4165C9.80687 12.4165 9.58301 12.1926 9.58301 11.9165ZM12.083 11.9165V11.0832C12.083 10.807 12.3069 10.5832 12.583 10.5832C12.8592 10.5832 13.083 10.807 13.083 11.0832V11.9165C13.083 12.1926 12.8592 12.4165 12.583 12.4165C12.3069 12.4165 12.083 12.1926 12.083 11.9165ZM14.1663 6.99984V3.99984C14.1663 3.5396 13.7932 3.1665 13.333 3.1665H2.66634C2.2061 3.1665 1.83301 3.5396 1.83301 3.99984V11.3332C1.83301 11.7934 2.2061 12.1665 2.66634 12.1665H5.99967C6.27582 12.1665 6.49967 12.3904 6.49967 12.6665C6.49967 12.9426 6.27582 13.1665 5.99967 13.1665H2.66634C1.65382 13.1665 0.833008 12.3457 0.833008 11.3332V3.99984C0.833008 2.98732 1.65382 2.1665 2.66634 2.1665H13.333C14.3455 2.1665 15.1663 2.98732 15.1663 3.99984V6.99984C15.1663 7.27598 14.9425 7.49984 14.6663 7.49984C14.3902 7.49984 14.1663 7.27598 14.1663 6.99984ZM4.00619 4.49984C4.28233 4.49984 4.50619 4.7237 4.50619 4.99984C4.50619 5.27598 4.28233 5.49984 4.00619 5.49984H3.99967C3.72353 5.49984 3.49967 5.27598 3.49967 4.99984C3.49967 4.7237 3.72353 4.49984 3.99967 4.49984H4.00619ZM5.99967 4.49984C6.27582 4.49984 6.49967 4.7237 6.49967 4.99984C6.49967 5.27598 6.27582 5.49984 5.99967 5.49984H5.99316C5.71702 5.49984 5.49316 5.27598 5.49316 4.99984C5.49316 4.7237 5.71702 4.49984 5.99316 4.49984H5.99967ZM7.99967 4.49984C8.27582 4.49984 8.49967 4.7237 8.49967 4.99984C8.49967 5.27598 8.27582 5.49984 7.99967 5.49984H7.99316C7.71702 5.49984 7.49316 5.27598 7.49316 4.99984C7.49316 4.7237 7.71702 4.49984 7.99316 4.49984H7.99967ZM15.1663 12.9998C15.1663 13.739 14.6509 14.4998 13.833 14.4998H8.83301C8.01514 14.4998 7.49967 13.739 7.49967 12.9998V9.99984C7.49967 9.26064 8.01514 8.49984 8.83301 8.49984H10.833V7.33317C10.833 7.05703 11.0569 6.83317 11.333 6.83317C11.6092 6.83317 11.833 7.05703 11.833 7.33317V8.49984H13.833C14.6509 8.49984 15.1663 9.26064 15.1663 9.99984V12.9998Z" fill="#100D0D"/>
</svg>
