<svg xmlns="http://www.w3.org/2000/svg" width="95" height="36" viewBox="0 0 95 36" fill="none"><path d="M22.8301 19.1846C24.1691 25.5208 19.9048 30.1973 13.817 29.4635C13.7945 29.4593 13.7739 29.4481 13.7581 29.4315C13.7424 29.4149 13.7323 29.3937 13.7294 29.371C13.7264 29.3483 13.7307 29.3252 13.7417 29.3051C13.7527 29.285 13.7697 29.2689 13.7904 29.2591C14.4242 28.9721 15.0388 28.6443 15.6303 28.278C15.6928 28.2411 15.7625 28.2181 15.8347 28.2106C17.1351 28.114 18.3791 27.6403 19.4142 26.8473C21.9307 24.9669 22.2864 21.0548 21.209 18.0584C19.9825 14.3241 16.9488 10.9414 13.4184 9.14067C13.3987 9.13005 13.3828 9.11373 13.3726 9.09385C13.3624 9.07398 13.3585 9.05148 13.3614 9.02934C13.3643 9.0072 13.3738 8.98645 13.3887 8.96983C13.4036 8.95322 13.4232 8.94151 13.4449 8.93627C14.0419 8.82488 14.6494 8.78033 15.2562 8.80342C15.3441 8.80805 15.4294 8.83553 15.5035 8.88314C16.4076 9.46222 17.2549 10.1253 18.0343 10.8637C20.4138 13.1366 22.1596 15.9797 22.8301 19.1846ZM0.249258 16.8177C-1.08973 10.4815 3.17459 5.80497 9.26239 6.53874C9.28504 6.54263 9.30586 6.55361 9.32185 6.5701C9.33784 6.58659 9.34818 6.60774 9.35136 6.63048C9.35455 6.65323 9.35042 6.6764 9.33957 6.69665C9.32872 6.7169 9.31172 6.73318 9.29102 6.74314C8.65379 7.02988 8.03581 7.35759 7.44096 7.72422C7.37846 7.76114 7.30873 7.78414 7.23653 7.79167C5.93612 7.8882 4.69212 8.362 3.65704 9.15498C1.14056 11.0354 0.784853 14.9475 1.86422 17.9439C3.09078 21.6782 6.12241 25.0609 9.65285 26.8616C9.6725 26.8722 9.68847 26.8885 9.69864 26.9084C9.70882 26.9283 9.71272 26.9508 9.70984 26.9729C9.70696 26.9951 9.69743 27.0158 9.68251 27.0324C9.66759 27.049 9.64798 27.0607 9.62627 27.066C9.03003 27.1774 8.42322 27.2219 7.8171 27.1988C7.72847 27.1943 7.64254 27.1668 7.5677 27.1191C6.66666 26.5356 5.82273 25.8684 5.04713 25.1263C2.66353 22.8657 0.917731 20.0226 0.249258 16.8177ZM10.3561 29.2857C4.01887 30.6245 -0.65635 26.3608 0.0754948 20.274C0.0796838 20.2515 0.0908963 20.2309 0.107524 20.2151C0.124151 20.1994 0.145338 20.1893 0.168044 20.1864C0.19075 20.1834 0.213812 20.1877 0.233911 20.1987C0.254011 20.2097 0.270116 20.2267 0.279921 20.2474C0.567951 20.8839 0.895681 21.5017 1.26117 22.0972C1.29896 22.1593 1.32203 22.2292 1.32863 22.3016C1.42522 23.6011 1.8991 24.8443 2.69215 25.8785C4.57287 28.3945 8.48762 28.7522 11.4825 27.673C15.2173 26.4467 18.6026 23.4155 20.4036 19.8836C20.4136 19.8629 20.4298 19.8459 20.4501 19.835C20.4703 19.8242 20.4935 19.8201 20.5163 19.8233C20.539 19.8264 20.5602 19.8368 20.5767 19.8528C20.5932 19.8688 20.6041 19.8896 20.608 19.9122C20.7205 20.5082 20.7651 21.115 20.7409 21.7211C20.7363 21.8091 20.7088 21.8943 20.6612 21.9684C20.0781 22.8697 19.4107 23.7135 18.668 24.4886C16.3989 26.8738 13.5594 28.6296 10.354 29.2898L10.3561 29.2857ZM23.0039 15.7242C22.9989 15.746 22.9874 15.7658 22.971 15.781C22.9545 15.7961 22.9338 15.8059 22.9116 15.809C22.8894 15.8121 22.8668 15.8084 22.8468 15.7984C22.8267 15.7883 22.8103 15.7724 22.7995 15.7528C22.5097 15.1201 22.1813 14.5057 21.8162 13.9133C21.7768 13.8516 21.7523 13.7816 21.7446 13.7089C21.6481 12.4099 21.1742 11.1674 20.3811 10.134C18.5024 7.61794 14.5877 7.26025 11.5908 8.33945C7.85595 9.56581 4.4727 12.597 2.67171 16.1268C2.66109 16.1465 2.64476 16.1624 2.62488 16.1726C2.605 16.1828 2.5825 16.1867 2.56035 16.1838C2.53821 16.1809 2.51746 16.1714 2.50084 16.1565C2.48422 16.1416 2.47252 16.122 2.46728 16.1003C2.35546 15.5042 2.31157 14.8974 2.33644 14.2914C2.33914 14.2031 2.36679 14.1173 2.41617 14.0441C2.99852 13.1428 3.66522 12.299 4.40728 11.5239C6.6805 9.14067 9.51793 7.39515 12.7295 6.72473C19.0564 5.37165 23.7378 9.63939 23.0019 15.7283L23.0039 15.7242Z" fill="#181B1B"/><path d="M44.6513 14.4532C44.03 14.1522 43.349 13.9959 42.6592 13.9959C41.9694 13.9959 41.2884 14.1522 40.6671 14.4532C40.073 14.7551 39.5793 15.2242 39.2462 15.8031C38.9003 16.4871 38.7201 17.2433 38.7201 18.0104C38.7201 18.7774 38.9003 19.5337 39.2462 20.2176C39.5793 20.7965 40.073 21.2656 40.6671 21.5676C41.2884 21.8686 41.9694 22.0249 42.6592 22.0249C43.349 22.0249 44.03 21.8686 44.6513 21.5676C45.2454 21.2656 45.7391 20.7965 46.0722 20.2176C46.418 19.5337 46.5983 18.7774 46.5983 18.0104C46.5983 17.2433 46.418 16.4871 46.0722 15.8031C45.7391 15.2242 45.2454 14.7551 44.6513 14.4532ZM44.5688 20.1467C44.0504 20.6304 43.3689 20.8992 42.6612 20.8992C41.9535 20.8992 41.2719 20.6304 40.7535 20.1467C40.2537 19.6356 40.0037 18.9202 40.0037 18.0005C40.0037 17.0808 40.2537 16.3674 40.7535 15.8603C41.273 15.3787 41.9541 15.1113 42.6612 15.1113C43.3682 15.1113 44.0493 15.3787 44.5688 15.8603C45.066 16.3595 45.3146 17.073 45.3146 18.0005C45.3146 18.9281 45.066 19.6402 44.5688 20.1368V20.1467ZM37.5917 18.9228C37.5484 19.4639 37.3804 19.9874 37.101 20.4521C36.8021 20.9414 36.375 21.3389 35.8665 21.6011C35.2677 21.8989 34.6052 22.0444 33.9372 22.0248C33.2385 22.0336 32.5484 21.8699 31.9275 21.5479C31.3451 21.241 30.8668 20.7669 30.5536 20.1861C30.2256 19.5032 30.0552 18.7548 30.0552 17.9966C30.0552 17.2384 30.2256 16.49 30.5536 15.8071C30.8668 15.2262 31.3451 14.7522 31.9275 14.4453C32.5496 14.1281 33.2397 13.969 33.9372 13.9821C34.5988 13.9626 35.2553 14.1039 35.8508 14.394C36.3475 14.6431 36.7684 15.0215 37.0696 15.4898C37.3337 15.905 37.4933 16.3784 37.5347 16.8693C37.5355 16.883 37.5336 16.8967 37.5289 16.9096C37.5242 16.9225 37.517 16.9343 37.5076 16.9442C37.4982 16.9542 37.4869 16.9621 37.4744 16.9675C37.4618 16.973 37.4483 16.9757 37.4347 16.9757H36.2983C36.2748 16.9755 36.2522 16.9668 36.2346 16.9513C36.2169 16.9357 36.2054 16.9143 36.2021 16.891C36.1409 16.4167 35.9208 15.9775 35.578 15.6455C35.2188 15.3025 34.6654 15.1272 33.9372 15.1272C33.5913 15.114 33.2465 15.1735 32.9248 15.3017C32.603 15.43 32.3115 15.6243 32.0688 15.8721C31.5938 16.3668 31.3544 17.0821 31.3544 17.9985C31.3544 18.9149 31.5938 19.6244 32.0688 20.1211C32.311 20.3699 32.6023 20.5651 32.9241 20.694C33.2459 20.823 33.591 20.8829 33.9372 20.8699C34.6771 20.8699 35.2443 20.6729 35.6251 20.2886C35.993 19.9115 36.2186 19.4174 36.263 18.8913C36.2654 18.8667 36.2767 18.8439 36.2948 18.8272C36.3129 18.8105 36.3365 18.801 36.3611 18.8006H37.4916C37.5057 18.8009 37.5196 18.804 37.5324 18.8099C37.5453 18.8157 37.5567 18.8242 37.5661 18.8348C37.5755 18.8453 37.5827 18.8577 37.5871 18.8712C37.5915 18.8847 37.593 18.8989 37.5917 18.913V18.9228ZM94.3531 19.3801H93.203C93.1818 19.3801 93.1611 19.387 93.1442 19.3998C93.1272 19.4126 93.1148 19.4305 93.1088 19.451C92.9985 19.8469 92.7697 20.1992 92.4533 20.46C92.1118 20.7438 91.5799 20.8877 90.8714 20.8877C90.195 20.9091 89.5368 20.6652 89.0364 20.2078C88.6163 19.8136 88.3749 19.2224 88.32 18.4656C88.3192 18.4518 88.3212 18.438 88.3258 18.425C88.3305 18.4121 88.3377 18.4001 88.3471 18.39C88.3564 18.3799 88.3677 18.3718 88.3802 18.3661C88.3928 18.3605 88.4063 18.3575 88.4201 18.3572H94.3473C94.3603 18.3575 94.3733 18.3551 94.3854 18.3503C94.3975 18.3455 94.4086 18.3383 94.4179 18.3291C94.4272 18.3199 94.4346 18.3089 94.4397 18.2969C94.4447 18.2848 94.4474 18.2718 94.4474 18.2587V17.628C94.459 16.9765 94.3186 16.3312 94.0372 15.744C93.7691 15.2009 93.3462 14.7502 92.8223 14.4492C92.2157 14.1179 91.5321 13.9553 90.842 13.9782C90.1389 13.9604 89.4433 14.1275 88.8244 14.463C88.2585 14.7829 87.7985 15.2626 87.5016 15.8425C87.1721 16.5126 87.011 17.2535 87.0325 18.0005C87.0325 19.2421 87.3596 20.2216 88.0138 20.9389C88.668 21.6563 89.6219 22.015 90.8754 22.015C91.4019 22.0264 91.9262 21.9437 92.4239 21.7706C92.8183 21.6282 93.182 21.4115 93.4955 21.1321C93.764 20.8869 93.9889 20.5977 94.1608 20.2767C94.2905 20.0339 94.3894 19.7757 94.4552 19.5082C94.4596 19.4927 94.4603 19.4764 94.4571 19.4607C94.454 19.4449 94.4472 19.4301 94.4372 19.4176C94.4272 19.4051 94.4143 19.3951 94.3997 19.3886C94.3851 19.382 94.3691 19.3791 94.3531 19.3801ZM88.3553 17.1728C88.4022 16.8802 88.4963 16.5973 88.634 16.3352C88.8404 15.9394 89.1595 15.6142 89.5506 15.4011C89.9493 15.1914 90.3939 15.0851 90.8439 15.0917C91.5446 15.0917 92.1 15.2769 92.5102 15.6514C92.9204 16.0547 93.1553 16.6043 93.1638 17.1807C93.1646 17.1945 93.1626 17.2083 93.1579 17.2213C93.1533 17.2343 93.1461 17.2462 93.1367 17.2563C93.1274 17.2664 93.1161 17.2745 93.1035 17.2802C93.091 17.2858 93.0774 17.2888 93.0637 17.2891H88.4534C88.4398 17.2889 88.4263 17.2858 88.4139 17.2802C88.4014 17.2745 88.3902 17.2663 88.3811 17.2562C88.3719 17.246 88.3648 17.2341 88.3604 17.2211C88.356 17.2081 88.3542 17.1944 88.3553 17.1807V17.1728ZM47.9112 21.609V14.3921C47.9112 14.3659 47.9216 14.3409 47.94 14.3224C47.9584 14.3039 47.9833 14.2935 48.0094 14.2935H49.0829C49.1089 14.2935 49.1339 14.3039 49.1523 14.3224C49.1707 14.3409 49.181 14.3659 49.181 14.3921V15.2277C49.179 15.2413 49.1802 15.2551 49.1845 15.2682C49.1888 15.2812 49.1962 15.2931 49.206 15.3027C49.2157 15.3123 49.2277 15.3195 49.2407 15.3235C49.2538 15.3276 49.2677 15.3285 49.2811 15.3262C49.3282 15.3262 49.3734 15.2907 49.4146 15.2198C49.6067 14.8759 49.8864 14.5895 50.2252 14.3901C50.6365 14.1667 51.1004 14.0591 51.5676 14.0787C52.0878 14.0573 52.6031 14.1873 53.0514 14.4532C53.4276 14.695 53.724 15.0434 53.9032 15.4543C53.9137 15.4862 53.9336 15.5141 53.9602 15.5345C53.9868 15.5549 54.0189 15.5668 54.0523 15.5686C54.0708 15.5708 54.0896 15.5682 54.1068 15.5609C54.124 15.5536 54.139 15.542 54.1504 15.5272C54.1754 15.4884 54.1971 15.4475 54.2152 15.405C54.3988 14.9994 54.7006 14.6592 55.0807 14.4295C55.5483 14.1749 56.0764 14.0536 56.6077 14.0787C57.1346 14.0594 57.6555 14.1965 58.1052 14.4729C58.4984 14.7291 58.8044 15.0997 58.9825 15.5351C59.1834 16.0228 59.2836 16.5465 59.2769 17.0743V21.607C59.2769 21.6201 59.2743 21.6331 59.2692 21.6452C59.2642 21.6573 59.2567 21.6682 59.2474 21.6774C59.2381 21.6866 59.2271 21.6938 59.2149 21.6986C59.2028 21.7035 59.1898 21.7058 59.1768 21.7055H58.0993C58.0862 21.7058 58.0733 21.7035 58.0611 21.6986C58.049 21.6938 58.0379 21.6866 58.0286 21.6774C58.0193 21.6682 58.0119 21.6573 58.0068 21.6452C58.0018 21.6331 57.9992 21.6201 57.9992 21.607V17.1452C57.9992 15.8616 57.396 15.2198 56.1896 15.2198C55.8568 15.2182 55.5284 15.2966 55.2319 15.4484C54.922 15.6117 54.6698 15.867 54.5096 16.1795C54.3115 16.591 54.2177 17.0453 54.2368 17.5019V21.609C54.2368 21.6351 54.2265 21.6602 54.2081 21.6787C54.1897 21.6971 54.1647 21.7075 54.1387 21.7075H53.0573C53.0312 21.7075 53.0063 21.6971 52.9879 21.6787C52.9695 21.6602 52.9591 21.6351 52.9591 21.609V17.1452C52.9591 15.8616 52.3559 15.2198 51.1496 15.2198C50.8173 15.218 50.4895 15.2964 50.1938 15.4484C49.8853 15.613 49.634 15.868 49.4735 16.1795C49.2721 16.59 49.1769 17.0448 49.1968 17.5019V21.609C49.1968 21.6221 49.1942 21.6351 49.1891 21.6472C49.184 21.6592 49.1766 21.6702 49.1673 21.6794C49.158 21.6885 49.1469 21.6958 49.1348 21.7006C49.1227 21.7054 49.1097 21.7078 49.0967 21.7075H48.0172C48.0037 21.7086 47.9901 21.7069 47.9772 21.7024C47.9644 21.6979 47.9526 21.6909 47.9427 21.6816C47.9327 21.6723 47.9248 21.6611 47.9194 21.6486C47.914 21.6361 47.9112 21.6226 47.9112 21.609ZM60.9353 21.609V14.3921C60.9353 14.379 60.9379 14.366 60.9429 14.3539C60.948 14.3418 60.9554 14.3309 60.9647 14.3217C60.974 14.3125 60.9851 14.3053 60.9972 14.3005C61.0094 14.2956 61.0223 14.2933 61.0354 14.2935H62.1089C62.135 14.2935 62.1599 14.3039 62.1783 14.3224C62.1967 14.3409 62.2071 14.3659 62.2071 14.3921V15.2277C62.205 15.2413 62.2062 15.2551 62.2105 15.2682C62.2149 15.2812 62.2222 15.2931 62.232 15.3027C62.2418 15.3123 62.2537 15.3195 62.2668 15.3235C62.2798 15.3276 62.2937 15.3285 62.3072 15.3262C62.3543 15.3262 62.3994 15.2907 62.4406 15.2198C62.6327 14.8759 62.9125 14.5895 63.2512 14.3901C63.6619 14.1669 64.1251 14.0593 64.5917 14.0787C65.1125 14.057 65.6285 14.1871 66.0774 14.4532C66.4536 14.695 66.75 15.0434 66.9292 15.4543C66.9398 15.4862 66.9596 15.5141 66.9862 15.5345C67.0128 15.5549 67.0449 15.5668 67.0784 15.5686C67.0969 15.5708 67.1157 15.5682 67.1329 15.5609C67.1501 15.5536 67.1651 15.542 67.1765 15.5272C67.2014 15.4884 67.2231 15.4475 67.2413 15.405C67.4248 14.9994 67.7266 14.6592 68.1068 14.4295C68.5743 14.1748 69.1024 14.0534 69.6337 14.0787C70.1606 14.0594 70.6815 14.1965 71.1312 14.4729C71.5239 14.7297 71.8298 15.1 72.0085 15.5351C72.2078 16.0258 72.3053 16.5523 72.295 17.0821V21.6149C72.295 21.641 72.2847 21.6661 72.2663 21.6846C72.2479 21.703 72.2229 21.7134 72.1969 21.7134H71.1175C71.1044 21.7137 71.0914 21.7113 71.0793 21.7065C71.0672 21.7017 71.0561 21.6945 71.0468 21.6853C71.0375 21.6761 71.0301 21.6652 71.025 21.6531C71.02 21.641 71.0174 21.628 71.0174 21.6149V17.1452C71.0174 15.8616 70.4142 15.2198 69.2078 15.2198C68.8749 15.2179 68.5465 15.2963 68.25 15.4484C67.9401 15.6117 67.6879 15.867 67.5278 16.1795C67.3287 16.5907 67.2349 17.0452 67.255 17.5019V21.609C67.255 21.6351 67.2446 21.6602 67.2262 21.6787C67.2078 21.6971 67.1829 21.7075 67.1569 21.7075H66.0754C66.0494 21.7075 66.0245 21.6971 66.0061 21.6787C65.9877 21.6602 65.9773 21.6351 65.9773 21.609V17.1452C65.9773 15.8616 65.3735 15.2198 64.1658 15.2198C63.8342 15.2182 63.5071 15.2966 63.2119 15.4484C62.9035 15.613 62.6522 15.868 62.4917 16.1795C62.2903 16.59 62.1951 17.0448 62.2149 17.5019V21.609C62.2149 21.6221 62.2123 21.6351 62.2073 21.6472C62.2022 21.6592 62.1948 21.6702 62.1855 21.6794C62.1762 21.6885 62.1651 21.6958 62.153 21.7006C62.1409 21.7054 62.1279 21.7078 62.1148 21.7075H61.0432C61.0296 21.7089 61.0157 21.7074 61.0027 21.7031C60.9896 21.6987 60.9776 21.6917 60.9674 21.6824C60.9572 21.6731 60.9491 21.6618 60.9436 21.6491C60.938 21.6365 60.9352 21.6228 60.9353 21.609ZM82.4085 21.609V14.3881C82.409 14.3621 82.4195 14.3374 82.4378 14.319C82.4561 14.3006 82.4808 14.2901 82.5067 14.2896H83.5881C83.6141 14.2896 83.6391 14.3 83.6575 14.3184C83.6759 14.3369 83.6862 14.362 83.6862 14.3881V15.3735C83.6862 15.399 83.696 15.4234 83.7135 15.4418C83.7311 15.4602 83.7551 15.471 83.7804 15.472C83.8491 15.472 83.8982 15.4326 83.9276 15.3439C84.0474 14.997 84.2832 14.7024 84.5949 14.5103C84.9571 14.3187 85.3636 14.2276 85.7725 14.2462H86.5045C86.5306 14.2462 86.5555 14.2566 86.5739 14.2751C86.5923 14.2936 86.6027 14.3186 86.6027 14.3448V15.4011C86.6029 15.4142 86.6006 15.4272 86.5958 15.4394C86.591 15.4516 86.5838 15.4627 86.5747 15.472C86.5655 15.4814 86.5546 15.4888 86.5426 15.4939C86.5305 15.499 86.5176 15.5016 86.5045 15.5016H85.5762C84.96 15.5016 84.4909 15.6533 84.169 15.9608C83.8471 16.2682 83.6862 16.7767 83.6862 17.4901V21.5972C83.6862 21.6233 83.6759 21.6484 83.6575 21.6668C83.6391 21.6853 83.6141 21.6957 83.5881 21.6957H82.5067C82.4819 21.6958 82.4581 21.6865 82.4399 21.6697C82.4217 21.6529 82.4105 21.6298 82.4085 21.605V21.609ZM80.703 14.396V21.6129C80.703 21.626 80.7004 21.639 80.6953 21.6511C80.6903 21.6632 80.6829 21.6741 80.6735 21.6833C80.6642 21.6925 80.6532 21.6997 80.6411 21.7045C80.6289 21.7094 80.6159 21.7117 80.6029 21.7115H79.5293C79.5033 21.7115 79.4783 21.7011 79.4599 21.6826C79.4415 21.6641 79.4312 21.6391 79.4312 21.6129V20.7005C79.4318 20.6771 79.4233 20.6544 79.4076 20.6371C79.3918 20.6198 79.3701 20.6094 79.3468 20.6078C79.2919 20.6078 79.2428 20.6374 79.1977 20.7064C78.9731 21.0685 78.6647 21.3707 78.2987 21.5873C77.8374 21.833 77.319 21.95 76.7973 21.9263C75.8932 21.9263 75.1821 21.6668 74.664 21.1478C74.1458 20.6289 73.8841 19.8898 73.8789 18.9307V14.398C73.8789 14.3718 73.8892 14.3468 73.9076 14.3283C73.926 14.3098 73.951 14.2994 73.977 14.2994H75.0584C75.0845 14.2994 75.1094 14.3098 75.1278 14.3283C75.1462 14.3468 75.1566 14.3718 75.1566 14.398V18.7198C75.1566 19.3938 75.3273 19.9023 75.6708 20.259C76.0143 20.6157 76.5049 20.7872 77.1447 20.7872C77.8552 20.7872 78.4113 20.5697 78.813 20.1349C79.2146 19.7 79.4155 19.0378 79.4155 18.1483V14.4039C79.4155 14.3908 79.4181 14.3778 79.4232 14.3657C79.4282 14.3536 79.4356 14.3427 79.4449 14.3335C79.4542 14.3243 79.4653 14.3171 79.4774 14.3123C79.4896 14.3074 79.5025 14.3051 79.5156 14.3053H80.595C80.6208 14.3026 80.6466 14.3101 80.6668 14.3264C80.687 14.3426 80.7 14.3662 80.703 14.3921V14.396Z" fill="#181B1B"/></svg>