<svg width="20" height="20" viewBox="0 0 16 16" fill="none" xmlns="http://www.w3.org/2000/svg" shape-rendering="crispEdges">
<path d="M7.99984 11.3097C9.2885 11.3097 10.3332 10.2651 10.3332 8.97646C10.3332 7.68784 9.2885 6.6432 7.99984 6.6432C6.71117 6.6432 5.6665 7.68784 5.6665 8.97646C5.6665 10.2651 6.71117 11.3097 7.99984 11.3097ZM7.99984 11.3097C9.57673 11.3097 10.9402 12.2223 11.5915 13.5481M7.99984 11.3097C6.42294 11.3097 5.05889 12.2223 4.40729 13.5481M9.99984 5.3335C9.99984 4.22893 10.8953 3.3335 11.9998 3.3335C13.1044 3.3335 13.9998 4.22893 13.9998 5.3335C13.9998 6.43807 13.1044 7.3335 11.9998 7.3335C13.2753 7.3335 14.4113 7.93042 15.1437 8.86014M6.00031 5.3335C6.00031 4.22893 5.10487 3.3335 4.00031 3.3335C2.89574 3.3335 2.00031 4.22893 2.00031 5.3335C2.00031 6.43807 2.89574 7.3335 4.00031 7.3335C2.72489 7.3335 1.58889 7.93042 0.856445 8.86014" stroke="#100D0D" stroke-linecap="round" stroke-linejoin="round"/>
</svg>
