<svg width="20" height="20" viewBox="0 0 16 16" fill="none" xmlns="http://www.w3.org/2000/svg" shape-rendering="crispEdges">
<path d="M8.83301 12C8.83301 11.779 8.74515 11.5671 8.58887 11.4108C8.45219 11.2741 8.27302 11.1896 8.08236 11.1706L7.99967 11.1667C7.77866 11.1667 7.56676 11.2545 7.41048 11.4108C7.2542 11.5671 7.16634 11.779 7.16634 12V13.5H8.83301V12ZM9.33301 7.5C9.60915 7.5 9.83301 7.72386 9.83301 8C9.83301 8.27614 9.60915 8.5 9.33301 8.5H6.66634C6.3902 8.5 6.16634 8.27614 6.16634 8C6.16634 7.72386 6.3902 7.5 6.66634 7.5H9.33301ZM9.33301 4.83333C9.60915 4.83333 9.83301 5.05719 9.83301 5.33333C9.83301 5.60948 9.60915 5.83333 9.33301 5.83333H6.66634C6.3902 5.83333 6.16634 5.60948 6.16634 5.33333C6.16634 5.05719 6.3902 4.83333 6.66634 4.83333H9.33301ZM14.1663 6C14.1663 5.77899 14.0785 5.56709 13.9222 5.41081C13.7855 5.27413 13.6063 5.18957 13.4157 5.17057L13.333 5.16667H12.4997V13.5H13.333C13.554 13.5 13.7659 13.4121 13.9222 13.2559C14.0785 13.0996 14.1663 12.8877 14.1663 12.6667V6ZM1.83301 12.6667C1.83301 12.8877 1.92087 13.0996 2.07715 13.2559C2.23343 13.4121 2.44533 13.5 2.66634 13.5H3.49967V7.16667H2.66634C2.44533 7.16667 2.23343 7.25453 2.07715 7.41081C1.92087 7.56709 1.83301 7.77899 1.83301 8V12.6667ZM11.4997 3.33333C11.4997 3.11232 11.4118 2.90042 11.2555 2.74414C11.0993 2.58786 10.8874 2.5 10.6663 2.5H5.33301C5.11199 2.5 4.9001 2.58786 4.74382 2.74414C4.58753 2.90042 4.49967 3.11232 4.49967 3.33333V13.5H6.16634V12C6.16634 11.5138 6.35963 11.0476 6.70345 10.7038C7.04727 10.36 7.51344 10.1667 7.99967 10.1667L8.18066 10.1758C8.60043 10.2174 8.99501 10.4029 9.2959 10.7038C9.63972 11.0476 9.83301 11.5138 9.83301 12V13.5H11.4997V3.33333ZM12.4997 4.16667H13.333C13.8192 4.16667 14.2854 4.35996 14.6292 4.70378C14.973 5.04759 15.1663 5.51377 15.1663 6V12.6667C15.1663 13.1529 14.973 13.6191 14.6292 13.9629C14.2854 14.3067 13.8192 14.5 13.333 14.5H2.66634C2.18011 14.5 1.71393 14.3067 1.37012 13.9629C1.0263 13.6191 0.833008 13.1529 0.833008 12.6667V8C0.833008 7.51377 1.0263 7.04759 1.37012 6.70378C1.71393 6.35996 2.18011 6.16667 2.66634 6.16667H3.49967V3.33333C3.49967 2.8471 3.69297 2.38093 4.03678 2.03711C4.3806 1.69329 4.84678 1.5 5.33301 1.5H10.6663C11.1526 1.5 11.6187 1.69329 11.9626 2.03711C12.3064 2.38093 12.4997 2.8471 12.4997 3.33333V4.16667Z" fill="#100D0D"/>
</svg>
