<svg width="20" height="20" viewBox="0 0 16 16" fill="none" xmlns="http://www.w3.org/2000/svg" shape-rendering="crispEdges">
<path d="M0.666748 4.83332L3.90075 1.59932C4.03719 1.46207 4.19945 1.35317 4.37817 1.27891C4.55689 1.20466 4.74855 1.1665 4.94208 1.16666H11.0581C11.2516 1.1665 11.4433 1.20466 11.622 1.27891C11.8007 1.35317 11.963 1.46207 12.0994 1.59932L15.3334 4.83332" stroke="black" stroke-linecap="round" stroke-linejoin="round"/>
<path d="M2.1333 8.5V14.3667C2.1333 14.7557 2.28782 15.1287 2.56288 15.4038C2.83793 15.6788 3.21098 15.8333 3.59997 15.8333H12.4C12.789 15.8333 13.162 15.6788 13.4371 15.4038C13.7121 15.1287 13.8666 14.7557 13.8666 14.3667V8.5" stroke="black" stroke-linecap="round" stroke-linejoin="round"/>
<path d="M10.2 15.8333V12.8999C10.2 12.5109 10.0455 12.1379 9.77047 11.8628C9.49542 11.5878 9.12237 11.4333 8.73338 11.4333H7.26672C6.87773 11.4333 6.50468 11.5878 6.22963 11.8628C5.95457 12.1379 5.80005 12.5109 5.80005 12.8999V15.8333" stroke="black" stroke-linecap="round" stroke-linejoin="round"/>
<path d="M0.666748 4.83334H15.3334" stroke="black" stroke-linecap="round" stroke-linejoin="round"/>
<path d="M15.3334 4.83334V7.03334C15.3334 7.42233 15.1789 7.79538 14.9038 8.07043C14.6288 8.34549 14.2557 8.50001 13.8667 8.50001C13.4383 8.47643 13.0291 8.31429 12.7007 8.03801C12.6132 7.97478 12.508 7.94074 12.4001 7.94074C12.2921 7.94074 12.1869 7.97478 12.0994 8.03801C11.7711 8.31429 11.3619 8.47643 10.9334 8.50001C10.505 8.47643 10.0958 8.31429 9.76741 8.03801C9.67991 7.97478 9.57471 7.94074 9.46675 7.94074C9.35879 7.94074 9.25358 7.97478 9.16608 8.03801C8.83775 8.31429 8.42854 8.47643 8.00008 8.50001C7.57162 8.47643 7.16242 8.31429 6.83408 8.03801C6.74658 7.97478 6.64137 7.94074 6.53341 7.94074C6.42546 7.94074 6.32025 7.97478 6.23275 8.03801C5.90441 8.31429 5.49521 8.47643 5.06675 8.50001C4.63829 8.47643 4.22908 8.31429 3.90075 8.03801C3.81325 7.97478 3.70804 7.94074 3.60008 7.94074C3.49212 7.94074 3.38692 7.97478 3.29941 8.03801C2.97108 8.31429 2.56188 8.47643 2.13341 8.50001C1.74443 8.50001 1.37138 8.34549 1.09632 8.07043C0.821271 7.79538 0.666748 7.42233 0.666748 7.03334V4.83334" stroke="black" stroke-linecap="round" stroke-linejoin="round"/>
</svg>
