<svg width="20" height="20" viewBox="0 0 16 16" fill="none" xmlns="http://www.w3.org/2000/svg" shape-rendering="crispEdges">
<path d="M10.667 10.6668L12.667 5.3335L14.667 10.6668C14.087 11.1002 13.387 11.3335 12.667 11.3335C11.947 11.3335 11.247 11.1002 10.667 10.6668Z" stroke="#100D0D" stroke-linecap="round" stroke-linejoin="round"/>
<path d="M1.33301 10.6668L3.33301 5.3335L5.33301 10.6668C4.75301 11.1002 4.05301 11.3335 3.33301 11.3335C2.61301 11.3335 1.91301 11.1002 1.33301 10.6668Z" stroke="#100D0D" stroke-linecap="round" stroke-linejoin="round"/>
<path d="M4.66699 14H11.3337" stroke="#100D0D" stroke-linecap="round" stroke-linejoin="round"/>
<path d="M8 2V14" stroke="#100D0D" stroke-linecap="round" stroke-linejoin="round"/>
<path d="M2 4.66683H3.33333C4.66667 4.66683 6.66667 4.00016 8 3.3335C9.33333 4.00016 11.3333 4.66683 12.6667 4.66683H14" stroke="#100D0D" stroke-linecap="round" stroke-linejoin="round"/>
</svg>
