<svg xmlns="http://www.w3.org/2000/svg" width="277" height="70" viewBox="0 0 277 70" fill="none"><path fill-rule="evenodd" clip-rule="evenodd" d="M17.6195 7.3501L33.3153 21.8585V21.8551V7.38358H36.3707V21.9234L52.1369 7.3501V23.8918H58.6099V47.7516H52.1568V62.4812L36.3707 48.567V62.641H33.3153V48.7964L17.6373 62.6501V47.7516H11.1641V23.8918H17.6195V7.3501ZM31.012 26.9196H14.2194V44.7238H17.6334V39.1077L31.012 26.9196ZM20.6925 40.4512V55.8937L33.3153 44.7397V28.9488L20.6925 40.4512ZM36.4586 44.5922V28.9339L49.0852 40.437V47.7516H49.1014V55.736L36.4586 44.5922ZM52.1568 44.7238H55.5545V26.9196H38.8871L52.1568 38.9815V44.7238ZM49.0815 23.8918V14.3148L38.7205 23.8918H49.0815ZM31.0357 23.8918H20.6749V14.3148L31.0357 23.8918Z" fill="black"/><path d="M134.098 23.5284H136.038V27.539H133.527C131.559 27.539 130.091 28.014 129.118 28.9667C128.151 29.9164 127.665 31.4784 127.665 33.6497V46.8006H123.7V23.6199H127.665V27.3189C127.665 27.5276 127.769 27.6307 127.973 27.6307C128.089 27.6307 128.176 27.602 128.239 27.542C128.301 27.4818 128.355 27.3645 128.417 27.1843C129.18 24.7499 131.078 23.5312 134.101 23.5312H134.098V23.5284ZM160.469 28.4975C161.51 30.3541 162.033 32.5913 162.033 35.2059C162.033 37.8206 161.513 40.0578 160.469 41.9144C159.426 43.7711 158.074 45.1613 156.414 46.0825C154.755 47.0037 152.97 47.4643 151.061 47.4643C147.3 47.4643 144.657 45.9481 143.13 42.9157C143.014 42.6783 142.864 42.558 142.688 42.558C142.513 42.558 142.423 42.6468 142.423 42.827V55.2656H138.458V23.6169H142.423V27.5849C142.423 27.7621 142.51 27.8538 142.688 27.8538C142.867 27.8538 143.011 27.7364 143.13 27.4961C144.657 24.4637 147.3 22.9475 151.061 22.9475C152.97 22.9475 154.755 23.4081 156.414 24.3293C158.074 25.2505 159.423 26.6407 160.469 28.4975ZM158.071 35.2059C158.071 32.471 157.345 30.3397 155.891 28.8093C154.438 27.2788 152.523 26.5149 150.14 26.5149C147.756 26.5149 145.841 27.2816 144.388 28.8093C142.932 30.3397 142.4 32.4738 142.4 35.2059C142.4 37.938 142.934 40.0722 144.388 41.6025C145.841 43.1361 147.759 43.897 150.14 43.897C152.521 43.897 154.438 43.1303 155.891 41.6025C157.345 40.075 158.071 37.938 158.071 35.2059ZM93.7006 28.5318C94.7413 30.3884 95.2644 32.6256 95.2644 35.2402C95.2644 37.8551 94.7441 40.0921 93.7006 41.9487C92.6572 43.8054 91.3057 45.1958 89.6458 46.1168C87.9858 47.038 86.2016 47.4986 84.2927 47.4986C80.532 47.4986 77.8879 45.9824 76.3609 42.95C76.2451 42.7126 76.0952 42.5925 75.9198 42.5925C75.7445 42.5925 75.6541 42.6811 75.6541 42.8613V55.3H71.6924V23.6514H75.6569V27.6192C75.6569 27.7966 75.7445 27.8881 75.9227 27.8881C76.1008 27.8881 76.2451 27.7709 76.3639 27.5304C77.8909 24.498 80.5348 22.9818 84.2957 22.9818C86.2044 22.9818 87.9886 23.4424 89.6485 24.3636C91.3084 25.2848 92.6573 26.6752 93.7036 28.5318H93.7006ZM91.2999 35.2402C91.2999 32.5053 90.5732 30.3742 89.1198 28.8436C87.6663 27.3159 85.7491 26.5492 83.3681 26.5492C80.9872 26.5492 79.07 27.3159 77.6165 28.8436C76.1631 30.377 75.6286 32.5083 75.6286 35.2402C75.6286 37.9723 76.1631 40.1064 77.6165 41.637C79.07 43.1703 80.9843 43.9312 83.3681 43.9312C85.7519 43.9312 87.6663 43.1646 89.1198 41.637C90.5732 40.1092 91.2999 37.9723 91.2999 35.2402ZM116.693 39.4371H120.878C120.321 41.6083 119.181 43.4878 117.465 45.0756C115.746 46.6662 113.286 47.4585 110.082 47.4585C107.673 47.4585 105.552 46.9609 103.717 45.9653C101.881 44.9697 100.465 43.5536 99.4636 41.7084C98.4627 39.8662 97.965 37.6976 97.965 35.2002C97.965 32.7027 98.4513 30.5343 99.4184 28.6919C100.385 26.8497 101.746 25.4306 103.493 24.4352C105.241 23.4396 107.288 22.9417 109.638 22.9417C111.988 22.9417 113.936 23.4338 115.565 24.4123C117.196 25.3935 118.412 26.6952 119.221 28.3115C120.03 29.9335 120.431 31.7071 120.431 33.6383V36.313H102.147C102.291 38.6303 103.066 40.4755 104.46 41.84C105.854 43.2075 107.729 43.8912 110.079 43.8912C111.988 43.8912 113.452 43.4994 114.465 42.7098C115.477 41.9202 116.218 40.8303 116.69 39.4313L116.693 39.4371ZM102.065 32.9745H115.901C115.901 30.9548 115.387 29.37 114.357 28.2257C113.328 27.0842 111.713 26.5091 109.511 26.5091C107.455 26.5091 105.772 27.067 104.466 28.1828C103.159 29.2957 102.359 30.8948 102.065 32.9745ZM165.231 46.7949H169.198V14.7H165.231V46.7977V46.7949ZM220.988 21.0852H225.621V16.0674H220.988V21.0852ZM238.093 43.342C237.373 43.4164 236.936 43.4535 236.793 43.4535C236.589 43.4535 236.422 43.3935 236.307 43.2733C236.19 43.156 236.129 42.9929 236.129 42.7812C236.129 42.6354 236.167 42.1947 236.242 41.4653C236.312 40.7387 236.352 39.6144 236.352 38.101V27.0098H242.007L240.893 23.6141H236.354V17.3719H232.391V23.6113H228.077V27.007H232.391V39.211C232.391 41.7686 233.01 43.6708 234.241 44.9182C235.475 46.1655 237.355 46.792 239.884 46.792H242.968V43.2276H241.425C239.926 43.2276 238.817 43.2647 238.096 43.339L238.093 43.342ZM262.058 23.6141L255.493 43.0645C255.405 43.3047 255.266 43.6166 254.818 43.6166C254.368 43.6166 254.226 43.3047 254.137 43.0645L247.572 23.6141H243.528L251.132 46.7949H253.822C253.996 46.7949 254.13 46.8121 254.221 46.8406C254.308 46.8693 254.382 46.9437 254.441 47.0638C254.556 47.2412 254.542 47.51 254.396 47.8649L253.162 51.252C252.984 51.6983 252.648 51.9214 252.151 51.9214C251.973 51.9214 251.563 51.8841 250.917 51.8098C250.27 51.7354 249.436 51.6983 248.407 51.6983H245.189V55.2627H249.419C251.887 55.2627 253.372 54.8393 254.65 53.9925C255.929 53.1459 256.918 51.6524 257.624 49.5127L265.837 24.5038V23.6141H262.064H262.058ZM207.569 32.2623L201.356 23.6141H196.993V24.5038L204.438 34.5336L195.36 45.9023V46.792H199.812L207.039 37.4745L213.78 46.792H218.056V45.9023L210.166 35.2031L218.719 24.5497V23.6141H214.267L207.571 32.2623H207.569ZM221.41 46.7949H225.377V23.6169H221.41V46.7977V46.7949ZM195.306 39.4371C194.746 41.6083 193.611 43.4878 191.894 45.0756C190.174 46.6662 187.715 47.4585 184.511 47.4585C182.102 47.4585 179.981 46.9609 178.146 45.9653C176.307 44.9697 174.894 43.5536 173.893 41.7084C172.894 39.8662 172.397 37.6976 172.397 35.2002C172.397 32.7027 172.883 30.5343 173.85 28.6919C174.821 26.8497 176.178 25.4306 177.926 24.4352C179.672 23.4396 181.72 22.9417 184.073 22.9417C186.426 22.9417 188.371 23.4338 190.002 24.4123C191.631 25.3935 192.85 26.6952 193.658 28.3115C194.467 29.9335 194.868 31.7071 194.868 33.6383V36.313H176.583C176.729 38.6303 177.5 40.4755 178.896 41.84C180.289 43.2075 182.164 43.8912 184.514 43.8912C186.422 43.8912 187.888 43.4994 188.899 42.7098C189.911 41.9202 190.652 40.8303 191.122 39.4313H195.31L195.306 39.4371ZM176.593 32.9745H190.429C190.429 30.9548 189.915 29.37 188.889 28.2257C187.858 27.0842 186.244 26.5091 184.041 26.5091C181.985 26.5091 180.303 27.067 178.997 28.1828C177.69 29.2957 176.888 30.8948 176.597 32.9745H176.593Z" fill="black"/></svg>